<svg width="23" height="27" viewBox="0 0 23 27" fill="none" xmlns="http://www.w3.org/2000/svg">
<path d="M11.5286 4.85278C11.6706 6.19563 11.5439 7.79462 10.9747 9.08917L11.077 9.14653C11.1135 9.14597 11.151 9.14653 11.1877 9.14653C14.8926 9.14653 17.8936 12.0325 17.8936 15.5953C17.8936 16.4705 17.711 17.3087 17.3823 18.07L20.7991 21.0936C21.7955 19.4853 22.3669 17.6022 22.3669 15.5953C22.3669 9.769 17.5432 5.02799 11.5286 4.85278ZM6.91884 5.65581C2.85991 7.26968 2.72664e-07 11.1111 0 15.5953C0 19.8328 2.55678 23.4954 6.26275 25.2481V19.9792C5.83278 19.5325 5.46647 19.0297 5.18061 18.4797C4.42165 17.1898 3.92437 15.1681 3.92806 13.0306C3.93271 10.3408 4.65412 7.51007 6.91884 5.65581Z" fill="white"/>
<path fill-rule="evenodd" clip-rule="evenodd" d="M6.94433 18.8866C4.67472 16.4185 4.5646 13.661 5.19357 12.0819C6.37891 9.10609 10.675 7.74591 11.3215 3.29871C11.4923 14.3479 5.81475 10.5906 6.94433 18.8866Z" fill="white"/>
<path fill-rule="evenodd" clip-rule="evenodd" d="M4.55124 12.0463C4.18828 5.20297 10.0801 6.05675 10.8434 0.207397C11.8424 7.24601 5.31923 8.00742 4.55124 12.0463Z" fill="white"/>
<path d="M8.38966 20.8719C8.3897 20.9624 8.37117 21.0521 8.33514 21.1358C8.29911 21.2195 8.24628 21.2955 8.17967 21.3596C8.11306 21.4236 8.03397 21.4744 7.94693 21.5091C7.85989 21.5438 7.76659 21.5616 7.67237 21.5616C7.57815 21.5616 7.48486 21.5438 7.39781 21.5091C7.31077 21.4744 7.23168 21.4236 7.16507 21.3596C7.09846 21.2955 7.04563 21.2195 7.0096 21.1358C6.97357 21.0521 6.95504 20.9624 6.95508 20.8719C6.95504 20.7813 6.97357 20.6916 7.0096 20.6079C7.04563 20.5243 7.09846 20.4482 7.16507 20.3842C7.23168 20.3201 7.31077 20.2693 7.39781 20.2346C7.48486 20.2 7.57815 20.1821 7.67237 20.1821C7.76659 20.1821 7.85989 20.2 7.94693 20.2346C8.03397 20.2693 8.11306 20.3201 8.17967 20.3842C8.24628 20.4482 8.29911 20.5243 8.33514 20.6079C8.37117 20.6916 8.3897 20.7813 8.38966 20.8719Z" fill="white"/>
<path d="M8.38966 22.6219C8.3897 22.7124 8.37117 22.8021 8.33514 22.8858C8.29911 22.9695 8.24628 23.0455 8.17967 23.1096C8.11306 23.1736 8.03397 23.2244 7.94693 23.2591C7.85989 23.2938 7.76659 23.3116 7.67237 23.3116C7.57815 23.3116 7.48486 23.2938 7.39781 23.2591C7.31077 23.2244 7.23168 23.1736 7.16507 23.1096C7.09846 23.0455 7.04563 22.9695 7.0096 22.8858C6.97357 22.8021 6.95504 22.7124 6.95508 22.6219C6.95504 22.5313 6.97357 22.4416 7.0096 22.3579C7.04563 22.2743 7.09846 22.1982 7.16507 22.1342C7.23168 22.0701 7.31077 22.0193 7.39781 21.9846C7.48486 21.95 7.57815 21.9321 7.67237 21.9321C7.76659 21.9321 7.85989 21.95 7.94693 21.9846C8.03397 22.0193 8.11306 22.0701 8.17967 22.1342C8.24628 22.1982 8.29911 22.2743 8.33514 22.3579C8.37117 22.4416 8.3897 22.5313 8.38966 22.6219Z" fill="white"/>
<path d="M8.38966 24.372C8.3897 24.4625 8.37117 24.5522 8.33514 24.6359C8.29911 24.7196 8.24628 24.7956 8.17967 24.8597C8.11306 24.9237 8.03397 24.9745 7.94693 25.0092C7.85989 25.0439 7.76659 25.0617 7.67237 25.0617C7.57815 25.0617 7.48486 25.0439 7.39781 25.0092C7.31077 24.9745 7.23168 24.9237 7.16507 24.8597C7.09846 24.7956 7.04563 24.7196 7.0096 24.6359C6.97357 24.5522 6.95504 24.4625 6.95508 24.372C6.95504 24.2814 6.97357 24.1917 7.0096 24.1081C7.04563 24.0244 7.09846 23.9483 7.16507 23.8843C7.23168 23.8202 7.31077 23.7694 7.39781 23.7348C7.48486 23.7001 7.57815 23.6823 7.67237 23.6823C7.76659 23.6823 7.85989 23.7001 7.94693 23.7348C8.03397 23.7694 8.11306 23.8202 8.17967 23.8843C8.24628 23.9483 8.29911 24.0244 8.33514 24.1081C8.37117 24.1917 8.3897 24.2814 8.38966 24.372Z" fill="white"/>
<path fill-rule="evenodd" clip-rule="evenodd" d="M11.1163 9.87598C10.7714 12.4338 8.132 14.1585 8.15264 16.6285C8.13108 17.9198 9.27334 19.9037 11.5267 19.8294C12.7238 19.814 13.6908 19.3334 14.3016 18.6255C15.43 17.2223 15.0769 15.4251 14.3519 13.9351C13.5272 12.3834 12.0934 11.1568 11.1163 9.87598Z" fill="white"/>
<path fill-rule="evenodd" clip-rule="evenodd" d="M12.506 13.2083C12.4387 13.7073 11.9238 14.0438 11.9278 14.5257C11.9236 14.7776 12.1464 15.1647 12.5861 15.1502C12.8196 15.1472 13.0083 15.0534 13.1275 14.9153C13.3476 14.6415 13.2698 14.2909 13.1284 14.0002C12.9675 13.6975 12.6966 13.4581 12.506 13.2083Z" fill="rgba(255,255,255,0.3)"/>
</svg>
